<?xml version="1.0" encoding="UTF-8"?>
<svg width="29px" height="11px" viewBox="0 0 29 11" version="1.1" xmlns="http://www.w3.org/2000/svg" xmlns:xlink="http://www.w3.org/1999/xlink">
    <!-- Generator: Sketch 46.2 (44496) - http://www.bohemiancoding.com/sketch -->
    <title>Group 2 Copy</title>
    <desc>Created with Sketch.</desc>
    <defs></defs>
    <g id="Page-1" stroke="none" stroke-width="1" fill="none" fill-rule="evenodd">
        <g id="2017.09.14.Playground.CSSGrid---3@2x" transform="translate(-412.000000, -3580.000000)" fill="#FFFFFF">
            <g id="4" transform="translate(0.000000, 3487.000000)">
                <g id="previous" transform="translate(412.000000, 53.000000)">
                    <g id="Group-3" transform="translate(0.000000, 24.000000)">
                        <g id="Group-2-Copy" transform="translate(0.000000, 16.000000)">
                            <path d="M28.6261874,6.16203325 C28.9907536,5.78534656 28.9868181,5.17446378 28.6218941,4.7977771 L24.288243,0.340744216 C23.2764734,-0.692495311 21.7584612,0.857363979 22.7705886,1.89060351 L24.6613957,3.82153381 C24.9758743,4.1426857 24.8710481,4.40391847 24.4292039,4.40391847 L1.07330581,4.40391847 C0.480483236,4.40391847 1.42108547e-14,4.89496299 1.42108547e-14,5.5 C1.42108547e-14,6.10503701 0.480483236,6.59608153 1.07330581,6.59608153 L24.4292039,6.59608153 C24.8724792,6.59608153 24.9783787,6.85585286 24.6613957,7.17992763 L22.7705886,9.10939649 C21.7584612,10.142636 23.2764734,11.6924953 24.288243,10.6592558 L28.6261874,6.16203325 Z" id="Page-1" transform="translate(14.448804, 5.500000) scale(-1, 1) translate(-14.448804, -5.500000) "></path>
                        </g>
                    </g>
                </g>
            </g>
        </g>
    </g>
</svg>