<?xml version="1.0" encoding="UTF-8"?>
<svg width="13px" height="13px" viewBox="0 0 13 13" version="1.1" xmlns="http://www.w3.org/2000/svg" xmlns:xlink="http://www.w3.org/1999/xlink">
    <!-- Generator: Sketch 47.1 (45422) - http://www.bohemiancoding.com/sketch -->
    <title>Page 1</title>
    <desc>Created with Sketch.</desc>
    <defs></defs>
    <g id="wires" stroke="none" stroke-width="1" fill="none" fill-rule="evenodd">
        <g id="404" transform="translate(-112.000000, -129.000000)" fill="#FFFFFF">
            <g id="2" transform="translate(-216.000000, -703.000000)">
                <g id="Group-5" transform="translate(328.000000, 825.000000)">
                    <g id="Group-2" transform="translate(6.500000, 13.500000) scale(-1, 1) translate(-6.500000, -13.500000) translate(0.000000, 7.000000)">
                        <path d="M12.6281214,7.28240293 C13.0681151,6.83722775 13.0633654,6.11527538 12.62294,5.67010021 L7.39267138,0.40269771 C6.17157012,-0.818403549 4.33948644,1.01324834 5.56101949,2.2343496 L7.84302803,4.51635814 C8.22257117,4.89590128 8.09605679,5.20463091 7.56279652,5.20463091 L1.29536909,5.20463091 C0.579893561,5.20463091 0,5.78495626 0,6.5 C0,7.21504374 0.579893561,7.79536909 1.29536909,7.79536909 L7.56279652,7.79536909 C8.09778395,7.79536909 8.2255937,8.10237156 7.84302803,8.48536902 L5.56101949,10.7656504 C4.33948644,11.9867517 6.17157012,13.8184035 7.39267138,12.5973023 L12.6281214,7.28240293 Z" id="Page-1"></path>
                    </g>
                </g>
            </g>
        </g>
    </g>
</svg>