<?xml version="1.0" encoding="UTF-8"?>
<svg width="16px" height="14px" viewBox="0 0 16 14" version="1.1" xmlns="http://www.w3.org/2000/svg" xmlns:xlink="http://www.w3.org/1999/xlink">
    <!-- Generator: Sketch 46.2 (44496) - http://www.bohemiancoding.com/sketch -->
    <title>Group 2 Copy</title>
    <desc>Created with Sketch.</desc>
    <defs></defs>
    <g id="Page-1" stroke="none" stroke-width="1" fill="none" fill-rule="evenodd">
        <g id="2017.09.14.Playground.CSSGrid---3@2x" transform="translate(-88.000000, -530.000000)" fill="#FF9E2E">
            <g id="2" transform="translate(80.000000, 409.000000)">
                <g id="Sidebar">
                    <g id="Group-8" transform="translate(0.000000, 111.000000)">
                        <g id="Group-2-Copy" transform="translate(16.000000, 17.000000) scale(-1, -1) rotate(90.000000) translate(-16.000000, -17.000000) translate(9.000000, 9.000000)">
                            <path d="M14.6101392,9.29785702 C15.1131068,8.784535 15.1076773,7.95206709 14.6042161,7.43874508 L9.6253672,2.36501541 C8.22949625,0.956989548 6.13519625,3.06902834 7.53156078,4.4770542 L9.14018098,6.10838967 C9.5740461,6.54603278 9.4294244,6.90202235 8.81984144,6.90202235 L1.25673853,6.90202235 C0.438860823,6.90202235 -0.224029798,7.57118315 -0.224029798,8.39568486 C-0.224029798,9.22018657 0.438860823,9.88934737 1.25673853,9.88934737 L8.81984144,9.88934737 C9.43139876,9.88934737 9.57750123,10.2433454 9.14018098,10.6849716 L7.53156078,12.3143155 C6.13519625,13.7223414 8.22949625,15.8343802 9.6253672,14.4263543 L14.6101392,9.29785702 Z" id="Page-1" transform="translate(7.380285, 8.395685) scale(-1, 1) rotate(90.000000) translate(-7.380285, -8.395685) "></path>
                        </g>
                    </g>
                </g>
            </g>
        </g>
    </g>
</svg>