<?xml version="1.0" encoding="UTF-8"?>
<svg width="11px" height="11px" viewBox="0 0 11 11" version="1.1" xmlns="http://www.w3.org/2000/svg" xmlns:xlink="http://www.w3.org/1999/xlink">
    <defs></defs>
    <g id="Page-1" stroke="none" stroke-width="1" fill="none" fill-rule="evenodd">
        <g id="2017.09.14.Playground.CSSGrid---1@2x" transform="translate(-1212.000000, -42.000000)" fill="#FFFFFF">
            <g id="1" transform="translate(-293.000000, -583.000000)">
                <g id="Links" transform="translate(1183.000000, 610.000000)">
                    <g id="Group-4" transform="translate(311.000000, 0.000000)">
                        <g id="Group-2-Copy" transform="translate(16.320442, 20.244852) scale(-1, -1) rotate(90.000000) translate(-16.320442, -20.244852) translate(10.820442, 15.244852)">
                            <path d="M10.4625371,5.60184841 C10.7948764,5.25940596 10.7912889,4.70405799 10.4586234,4.36161554 L6.50805744,0.309767469 C5.58572603,-0.629541191 4.20190276,0.7794218 5.12456032,1.71873046 L6.84822423,3.47412165 C7.13490362,3.76607791 7.03934382,4.00356224 6.63655765,4.00356224 L0.978427952,4.00356224 C0.43800958,4.00356224 3.55271368e-14,4.44996636 3.55271368e-14,5 C3.55271368e-14,5.55003364 0.43800958,5.99643776 0.978427952,5.99643776 L6.63655765,5.99643776 C7.04064839,5.99643776 7.13718662,6.23259351 6.84822423,6.52720694 L5.12456032,8.28126954 C4.20190276,9.2205782 5.58572603,10.6295412 6.50805744,9.69023253 L10.4625371,5.60184841 Z" id="Page-1" transform="translate(5.354982, 5.000000) scale(-1, 1) translate(-5.354982, -5.000000) "></path>
                        </g>
                    </g>
                </g>
            </g>
        </g>
    </g>
</svg>