<?xml version="1.0" encoding="UTF-8"?>
<svg width="105px" height="35px" viewBox="0 0 105 35" version="1.1" xmlns="http://www.w3.org/2000/svg" xmlns:xlink="http://www.w3.org/1999/xlink">
    <!-- Generator: Sketch 46.2 (44496) - http://www.bohemiancoding.com/sketch -->
    <title>Logo</title>
    <desc>Created with Sketch.</desc>
    <defs></defs>
    <g id="Page-1" stroke="none" stroke-width="1" fill="none" fill-rule="evenodd">
        <g id="2017.09.14.Playground.CSSGrid---2@2x" transform="translate(-112.000000, -29.000000)">
            <g id="1" transform="translate(-294.000000, -843.000000)">
                <g id="Logo" transform="translate(406.000000, 872.000000)">
                    <rect id="Rectangle-9" fill="#000000" x="0" y="0" width="105" height="35"></rect>
                    <path d="M98.2718377,24.3014056 L98.3281545,26.2417087 C97.6523524,26.6126489 96.8357581,26.8409199 96.0473223,26.8409199 C94.3296586,26.8409199 93.4285891,25.8707684 93.2314801,24.3014056 C92.5275195,25.5854297 91.2322321,26.8409199 89.1766673,26.8409199 C87.3463699,26.8409199 85.290805,25.8707684 85.290805,23.1600509 C85.290805,20.0213255 88.2474394,19.2794449 91.2040737,19.2794449 C91.8798758,19.2794449 92.6119948,19.2794449 93.2314801,19.3935804 L93.2314801,18.9655724 C93.2314801,17.6244806 93.2314801,16.0836517 91.2040737,16.0836517 C90.4156379,16.0836517 89.824311,16.1121856 89.2329841,16.454592 L88.8106078,17.9098192 L85.9384487,17.5674128 L86.4171419,14.5998906 C88.6134989,13.7153407 89.7961526,13.430002 91.8798758,13.430002 C94.5549259,13.430002 96.9202334,14.8852293 96.9202334,17.8242176 L96.9202334,23.3883219 C96.9202334,24.1587363 97.2018176,24.3870072 97.7931445,24.3870072 C97.9057782,24.3870072 98.1028871,24.3870072 98.2718377,24.3014056 Z M90.5001131,24.2443379 C91.7954006,24.2443379 93.1470048,23.2456525 93.2314801,21.1341463 C92.6401532,21.0485447 92.0206679,20.9629431 91.4293411,20.9629431 C90.1340537,20.9629431 88.9795583,21.3053495 88.9795583,22.7605768 C88.9795583,23.5595251 89.4300931,24.2443379 90.5001131,24.2443379 Z M82.0244281,6.92428012 L85.6005477,6.92428012 L80.1096553,26.5555812 L76.5616941,26.5555812 L82.0244281,6.92428012 Z M74.6750799,6.92428012 L78.2511995,6.92428012 L72.7603071,26.5555812 L69.1841875,26.5555812 L74.6750799,6.92428012 Z M63.0174931,18.3092934 L66.7907216,18.3092934 L66.7907216,13.6868068 L63.0174931,13.6868068 L63.0174931,18.3092934 Z M63.0174931,26.5555812 L66.7907216,26.5555812 L66.7907216,21.9330946 L63.0174931,21.9330946 L63.0174931,26.5555812 Z M56.878957,23.787796 L52.7678274,23.787796 L59.8074329,15.5985759 L59.5258487,13.6868068 L48.3469551,13.6868068 L47.8964203,18.1951579 L50.5714704,18.4804966 L51.1346389,16.454592 L55.076818,16.454592 L48.0935293,24.6152782 L48.4595888,26.5555812 L59.5821655,26.5555812 L60.3424429,22.0472301 L57.4702839,21.7904253 L56.878957,23.787796 Z M39.2799431,13.430002 C43.8416075,13.430002 46.0942813,16.5401936 46.0942813,20.1639948 C46.0942813,24.2443379 43.137647,26.8409199 39.0828342,26.8409199 C35.1406551,26.8409199 32.4656049,24.444075 32.4656049,20.3066641 C32.4656049,16.5401936 34.7182787,13.430002 39.2799431,13.430002 Z M39.1673094,24.016067 C41.0820821,24.016067 42.3210527,22.4752381 42.3210527,20.0213255 C42.3210527,17.4532774 40.94129,16.2548549 39.2236263,16.2548549 C37.3651704,16.2548549 36.1825167,17.6815483 36.1825167,20.0783932 C36.1825167,22.275501 37.2243783,24.016067 39.1673094,24.016067 Z M29.199228,17.9098192 C29.199228,14.8281615 27.0873463,13.430002 24.8628309,13.430002 C22.8354245,13.430002 21.3711866,14.514289 20.6953845,16.226321 C20.1040576,14.3145519 18.4145523,13.430002 16.5560964,13.430002 C14.7821158,13.430002 13.4586699,14.286018 12.6983925,15.6271098 L12.6983925,13.6868068 L7.37645074,13.6868068 L7.37645074,16.4831259 L9.06595608,16.4831259 L9.06595608,23.787796 L7.37645074,23.787796 L7.37645074,26.5555812 L15.0918584,26.5555812 L15.0918584,23.787796 L12.6983925,23.787796 L12.6983925,19.2794449 C12.6983925,17.4818112 13.4305115,16.226321 15.1481753,16.226321 C16.5560964,16.226321 17.3163738,17.1108709 17.3163738,19.3365126 L17.3163738,26.5555812 L22.6383156,26.5555812 L22.6383156,23.787796 L20.9488103,23.787796 L20.9488103,19.2794449 C20.9488103,17.4818112 21.6527708,16.226321 23.3704346,16.226321 C24.8628309,16.226321 25.5949499,17.1108709 25.5949499,19.3365126 L25.5949499,26.5555812 L30.9168917,26.5555812 L30.9168917,23.787796 L29.199228,23.787796 L29.199228,17.9098192 Z" id="mozilla" fill="#FFFFFF"></path>
                </g>
            </g>
        </g>
    </g>
</svg>